solid ascii
  facet normal 0.000000e+000 -1.000000e+000 0.000000e+000
    outer loop
      vertex   7.000000e+001 -1.922140e+002 4.000000e+000
      vertex   7.000000e+001 -1.922140e+002 0.000000e+000
      vertex   9.000000e+001 -1.922140e+002 4.000000e+000
    endloop
  endfacet
  facet normal 0.000000e+000 -1.000000e+000 -0.000000e+000
    outer loop
      vertex   9.000000e+001 -1.922140e+002 4.000000e+000
      vertex   7.000000e+001 -1.922140e+002 0.000000e+000
      vertex   9.000000e+001 -1.922140e+002 0.000000e+000
    endloop
  endfacet
  facet normal -1.000000e+000 -0.000000e+000 -0.000000e+000
    outer loop
      vertex   9.000000e+001 -1.922140e+002 4.000000e+000
      vertex   9.000000e+001 -1.922140e+002 0.000000e+000
      vertex   9.000000e+001 -1.947860e+002 4.000000e+000
    endloop
  endfacet
  facet normal -1.000000e+000 -0.000000e+000 -0.000000e+000
    outer loop
      vertex   9.000000e+001 -1.947860e+002 4.000000e+000
      vertex   9.000000e+001 -1.922140e+002 0.000000e+000
      vertex   9.000000e+001 -1.947860e+002 0.000000e+000
    endloop
  endfacet
  facet normal 0.000000e+000 1.000000e+000 0.000000e+000
    outer loop
      vertex   9.000000e+001 -1.947860e+002 4.000000e+000
      vertex   9.000000e+001 -1.947860e+002 0.000000e+000
      vertex   7.000000e+001 -1.947860e+002 4.000000e+000
    endloop
  endfacet
  facet normal 0.000000e+000 1.000000e+000 0.000000e+000
    outer loop
      vertex   7.000000e+001 -1.947860e+002 4.000000e+000
      vertex   9.000000e+001 -1.947860e+002 0.000000e+000
      vertex   7.000000e+001 -1.947860e+002 0.000000e+000
    endloop
  endfacet
  facet normal 1.000000e+000 -0.000000e+000 0.000000e+000
    outer loop
      vertex   7.000000e+001 -1.947860e+002 4.000000e+000
      vertex   7.000000e+001 -1.947860e+002 0.000000e+000
      vertex   7.000000e+001 -1.922140e+002 4.000000e+000
    endloop
  endfacet
  facet normal 1.000000e+000 -0.000000e+000 0.000000e+000
    outer loop
      vertex   7.000000e+001 -1.922140e+002 4.000000e+000
      vertex   7.000000e+001 -1.947860e+002 0.000000e+000
      vertex   7.000000e+001 -1.922140e+002 0.000000e+000
    endloop
  endfacet
  facet normal 0.000000e+000 -1.000000e+000 0.000000e+000
    outer loop
      vertex   7.000000e+001 -1.992140e+002 4.000000e+000
      vertex   7.000000e+001 -1.992140e+002 0.000000e+000
      vertex   9.000000e+001 -1.992140e+002 4.000000e+000
    endloop
  endfacet
  facet normal 0.000000e+000 -1.000000e+000 -0.000000e+000
    outer loop
      vertex   9.000000e+001 -1.992140e+002 4.000000e+000
      vertex   7.000000e+001 -1.992140e+002 0.000000e+000
      vertex   9.000000e+001 -1.992140e+002 0.000000e+000
    endloop
  endfacet
  facet normal -1.000000e+000 -0.000000e+000 -0.000000e+000
    outer loop
      vertex   9.000000e+001 -1.992140e+002 4.000000e+000
      vertex   9.000000e+001 -1.992140e+002 0.000000e+000
      vertex   9.000000e+001 -2.017860e+002 4.000000e+000
    endloop
  endfacet
  facet normal -1.000000e+000 -0.000000e+000 -0.000000e+000
    outer loop
      vertex   9.000000e+001 -2.017860e+002 4.000000e+000
      vertex   9.000000e+001 -1.992140e+002 0.000000e+000
      vertex   9.000000e+001 -2.017860e+002 0.000000e+000
    endloop
  endfacet
  facet normal 0.000000e+000 1.000000e+000 0.000000e+000
    outer loop
      vertex   9.000000e+001 -2.017860e+002 4.000000e+000
      vertex   9.000000e+001 -2.017860e+002 0.000000e+000
      vertex   7.000000e+001 -2.017860e+002 4.000000e+000
    endloop
  endfacet
  facet normal 0.000000e+000 1.000000e+000 0.000000e+000
    outer loop
      vertex   7.000000e+001 -2.017860e+002 4.000000e+000
      vertex   9.000000e+001 -2.017860e+002 0.000000e+000
      vertex   7.000000e+001 -2.017860e+002 0.000000e+000
    endloop
  endfacet
  facet normal 1.000000e+000 -0.000000e+000 0.000000e+000
    outer loop
      vertex   7.000000e+001 -2.017860e+002 4.000000e+000
      vertex   7.000000e+001 -2.017860e+002 0.000000e+000
      vertex   7.000000e+001 -1.992140e+002 4.000000e+000
    endloop
  endfacet
  facet normal 1.000000e+000 -0.000000e+000 0.000000e+000
    outer loop
      vertex   7.000000e+001 -1.992140e+002 4.000000e+000
      vertex   7.000000e+001 -2.017860e+002 0.000000e+000
      vertex   7.000000e+001 -1.992140e+002 0.000000e+000
    endloop
  endfacet
  facet normal -0.000000e+000 0.000000e+000 1.000000e+000
    outer loop
      vertex   7.000000e+001 -1.947860e+002 4.000000e+000
      vertex   9.000000e+001 -1.992140e+002 4.000000e+000
      vertex   9.000000e+001 -1.947860e+002 4.000000e+000
    endloop
  endfacet
  facet normal -0.000000e+000 0.000000e+000 1.000000e+000
    outer loop
      vertex   7.000000e+001 -1.947860e+002 4.000000e+000
      vertex   7.000000e+001 -1.992140e+002 4.000000e+000
      vertex   9.000000e+001 -1.992140e+002 4.000000e+000
    endloop
  endfacet
  facet normal -0.000000e+000 0.000000e+000 1.000000e+000
    outer loop
      vertex   7.000000e+001 -1.947860e+002 4.000000e+000
      vertex   6.500000e+001 -2.047012e+002 4.000000e+000
      vertex   7.000000e+001 -1.992140e+002 4.000000e+000
    endloop
  endfacet
  facet normal 0.000000e+000 0.000000e+000 1.000000e+000
    outer loop
      vertex   7.000000e+001 -1.947860e+002 4.000000e+000
      vertex   6.500000e+001 -1.892988e+002 4.000000e+000
      vertex   6.500000e+001 -2.047012e+002 4.000000e+000
    endloop
  endfacet
  facet normal 0.000000e+000 -0.000000e+000 1.000000e+000
    outer loop
      vertex   7.000000e+001 -1.947860e+002 4.000000e+000
      vertex   7.000000e+001 -1.922140e+002 4.000000e+000
      vertex   6.500000e+001 -1.892988e+002 4.000000e+000
    endloop
  endfacet
  facet normal -0.000000e+000 0.000000e+000 1.000000e+000
    outer loop
      vertex   6.500000e+001 -1.892988e+002 4.000000e+000
      vertex   7.000000e+001 -1.922140e+002 4.000000e+000
      vertex   9.000000e+001 -1.922140e+002 4.000000e+000
    endloop
  endfacet
  facet normal 0.000000e+000 0.000000e+000 1.000000e+000
    outer loop
      vertex   9.500000e+001 -1.892988e+002 4.000000e+000
      vertex   9.000000e+001 -1.922140e+002 4.000000e+000
      vertex   9.000000e+001 -1.947860e+002 4.000000e+000
    endloop
  endfacet
  facet normal 0.000000e+000 0.000000e+000 1.000000e+000
    outer loop
      vertex   9.500000e+001 -2.047012e+002 4.000000e+000
      vertex   9.000000e+001 -1.947860e+002 4.000000e+000
      vertex   9.000000e+001 -1.992140e+002 4.000000e+000
    endloop
  endfacet
  facet normal -0.000000e+000 -0.000000e+000 1.000000e+000
    outer loop
      vertex   9.000000e+001 -2.017860e+002 4.000000e+000
      vertex   9.500000e+001 -2.047012e+002 4.000000e+000
      vertex   9.000000e+001 -1.992140e+002 4.000000e+000
    endloop
  endfacet
  facet normal 0.000000e+000 0.000000e+000 1.000000e+000
    outer loop
      vertex   9.000000e+001 -2.017860e+002 4.000000e+000
      vertex   7.000000e+001 -2.017860e+002 4.000000e+000
      vertex   9.500000e+001 -2.047012e+002 4.000000e+000
    endloop
  endfacet
  facet normal 0.000000e+000 0.000000e+000 1.000000e+000
    outer loop
      vertex   9.500000e+001 -2.047012e+002 4.000000e+000
      vertex   7.000000e+001 -2.017860e+002 4.000000e+000
      vertex   6.500000e+001 -2.047012e+002 4.000000e+000
    endloop
  endfacet
  facet normal 0.000000e+000 0.000000e+000 1.000000e+000
    outer loop
      vertex   6.500000e+001 -2.047012e+002 4.000000e+000
      vertex   7.000000e+001 -2.017860e+002 4.000000e+000
      vertex   7.000000e+001 -1.992140e+002 4.000000e+000
    endloop
  endfacet
  facet normal -0.000000e+000 0.000000e+000 1.000000e+000
    outer loop
      vertex   6.500000e+001 -1.892988e+002 4.000000e+000
      vertex   9.000000e+001 -1.922140e+002 4.000000e+000
      vertex   9.500000e+001 -1.892988e+002 4.000000e+000
    endloop
  endfacet
  facet normal 0.000000e+000 -0.000000e+000 1.000000e+000
    outer loop
      vertex   9.500000e+001 -2.047012e+002 4.000000e+000
      vertex   9.500000e+001 -1.892988e+002 4.000000e+000
      vertex   9.000000e+001 -1.947860e+002 4.000000e+000
    endloop
  endfacet
  facet normal -0.000000e+000 0.000000e+000 -1.000000e+000
    outer loop
      vertex   9.000000e+001 -1.947860e+002 0.000000e+000
      vertex   7.000000e+001 -1.992140e+002 0.000000e+000
      vertex   7.000000e+001 -1.947860e+002 0.000000e+000
    endloop
  endfacet
  facet normal -0.000000e+000 -0.000000e+000 -1.000000e+000
    outer loop
      vertex   9.000000e+001 -1.947860e+002 0.000000e+000
      vertex   9.000000e+001 -1.992140e+002 0.000000e+000
      vertex   7.000000e+001 -1.992140e+002 0.000000e+000
    endloop
  endfacet
  facet normal -0.000000e+000 -0.000000e+000 -1.000000e+000
    outer loop
      vertex   9.000000e+001 -1.947860e+002 0.000000e+000
      vertex   9.500000e+001 -2.047012e+002 0.000000e+000
      vertex   9.000000e+001 -1.992140e+002 0.000000e+000
    endloop
  endfacet
  facet normal 0.000000e+000 0.000000e+000 -1.000000e+000
    outer loop
      vertex   9.000000e+001 -1.947860e+002 0.000000e+000
      vertex   9.500000e+001 -1.892988e+002 0.000000e+000
      vertex   9.500000e+001 -2.047012e+002 0.000000e+000
    endloop
  endfacet
  facet normal 0.000000e+000 0.000000e+000 -1.000000e+000
    outer loop
      vertex   9.000000e+001 -1.947860e+002 0.000000e+000
      vertex   9.000000e+001 -1.922140e+002 0.000000e+000
      vertex   9.500000e+001 -1.892988e+002 0.000000e+000
    endloop
  endfacet
  facet normal -0.000000e+000 0.000000e+000 -1.000000e+000
    outer loop
      vertex   9.500000e+001 -1.892988e+002 0.000000e+000
      vertex   9.000000e+001 -1.922140e+002 0.000000e+000
      vertex   7.000000e+001 -1.922140e+002 0.000000e+000
    endloop
  endfacet
  facet normal 0.000000e+000 0.000000e+000 -1.000000e+000
    outer loop
      vertex   6.500000e+001 -1.892988e+002 0.000000e+000
      vertex   7.000000e+001 -1.922140e+002 0.000000e+000
      vertex   7.000000e+001 -1.947860e+002 0.000000e+000
    endloop
  endfacet
  facet normal 0.000000e+000 0.000000e+000 -1.000000e+000
    outer loop
      vertex   6.500000e+001 -2.047012e+002 0.000000e+000
      vertex   7.000000e+001 -1.947860e+002 0.000000e+000
      vertex   7.000000e+001 -1.992140e+002 0.000000e+000
    endloop
  endfacet
  facet normal -0.000000e+000 0.000000e+000 -1.000000e+000
    outer loop
      vertex   7.000000e+001 -2.017860e+002 0.000000e+000
      vertex   6.500000e+001 -2.047012e+002 0.000000e+000
      vertex   7.000000e+001 -1.992140e+002 0.000000e+000
    endloop
  endfacet
  facet normal 0.000000e+000 -0.000000e+000 -1.000000e+000
    outer loop
      vertex   7.000000e+001 -2.017860e+002 0.000000e+000
      vertex   9.000000e+001 -2.017860e+002 0.000000e+000
      vertex   6.500000e+001 -2.047012e+002 0.000000e+000
    endloop
  endfacet
  facet normal 0.000000e+000 0.000000e+000 -1.000000e+000
    outer loop
      vertex   6.500000e+001 -2.047012e+002 0.000000e+000
      vertex   9.000000e+001 -2.017860e+002 0.000000e+000
      vertex   9.500000e+001 -2.047012e+002 0.000000e+000
    endloop
  endfacet
  facet normal 0.000000e+000 0.000000e+000 -1.000000e+000
    outer loop
      vertex   9.500000e+001 -2.047012e+002 0.000000e+000
      vertex   9.000000e+001 -2.017860e+002 0.000000e+000
      vertex   9.000000e+001 -1.992140e+002 0.000000e+000
    endloop
  endfacet
  facet normal -0.000000e+000 0.000000e+000 -1.000000e+000
    outer loop
      vertex   9.500000e+001 -1.892988e+002 0.000000e+000
      vertex   7.000000e+001 -1.922140e+002 0.000000e+000
      vertex   6.500000e+001 -1.892988e+002 0.000000e+000
    endloop
  endfacet
  facet normal 0.000000e+000 0.000000e+000 -1.000000e+000
    outer loop
      vertex   6.500000e+001 -2.047012e+002 0.000000e+000
      vertex   6.500000e+001 -1.892988e+002 0.000000e+000
      vertex   7.000000e+001 -1.947860e+002 0.000000e+000
    endloop
  endfacet
  facet normal 0.000000e+000 -1.000000e+000 0.000000e+000
    outer loop
      vertex   6.500000e+001 -2.047012e+002 4.000000e+000
      vertex   6.500000e+001 -2.047012e+002 0.000000e+000
      vertex   9.500000e+001 -2.047012e+002 4.000000e+000
    endloop
  endfacet
  facet normal 0.000000e+000 -1.000000e+000 -0.000000e+000
    outer loop
      vertex   9.500000e+001 -2.047012e+002 4.000000e+000
      vertex   6.500000e+001 -2.047012e+002 0.000000e+000
      vertex   9.500000e+001 -2.047012e+002 0.000000e+000
    endloop
  endfacet
  facet normal -1.000000e+000 -0.000000e+000 -0.000000e+000
    outer loop
      vertex   6.500000e+001 -1.892988e+002 4.000000e+000
      vertex   6.500000e+001 -1.892988e+002 0.000000e+000
      vertex   6.500000e+001 -2.047012e+002 4.000000e+000
    endloop
  endfacet
  facet normal -1.000000e+000 -0.000000e+000 -0.000000e+000
    outer loop
      vertex   6.500000e+001 -2.047012e+002 4.000000e+000
      vertex   6.500000e+001 -1.892988e+002 0.000000e+000
      vertex   6.500000e+001 -2.047012e+002 0.000000e+000
    endloop
  endfacet
  facet normal 0.000000e+000 1.000000e+000 0.000000e+000
    outer loop
      vertex   9.500000e+001 -1.892988e+002 4.000000e+000
      vertex   9.500000e+001 -1.892988e+002 0.000000e+000
      vertex   6.500000e+001 -1.892988e+002 4.000000e+000
    endloop
  endfacet
  facet normal 0.000000e+000 1.000000e+000 0.000000e+000
    outer loop
      vertex   6.500000e+001 -1.892988e+002 4.000000e+000
      vertex   9.500000e+001 -1.892988e+002 0.000000e+000
      vertex   6.500000e+001 -1.892988e+002 0.000000e+000
    endloop
  endfacet
  facet normal 1.000000e+000 -0.000000e+000 0.000000e+000
    outer loop
      vertex   9.500000e+001 -2.047012e+002 4.000000e+000
      vertex   9.500000e+001 -2.047012e+002 0.000000e+000
      vertex   9.500000e+001 -1.892988e+002 4.000000e+000
    endloop
  endfacet
  facet normal 1.000000e+000 -0.000000e+000 0.000000e+000
    outer loop
      vertex   9.500000e+001 -1.892988e+002 4.000000e+000
      vertex   9.500000e+001 -2.047012e+002 0.000000e+000
      vertex   9.500000e+001 -1.892988e+002 0.000000e+000
    endloop
  endfacet
endsolid
